<svg width="207" height="207" xmlns="http://www.w3.org/2000/svg">

 <g>
  <title>background</title>
  <rect fill="none" id="canvas_background" height="209" width="209" y="-1" x="-1"/>
 </g>
 <g>
  <title>Layer 1</title>
  <g transform="matrix(0.9993653195146146,0,0,0.9994067776643323,14.264860361673831,13.443955850196083) " id="SvgjsG1008">
   <svg y="-49.089124" x="-58.906949" id="svg_1" viewBox="0 0 32 32" height="288" width="288">
    <path id="svg_2" class="colorf55 svgShape" transform="rotate(-30 -2403.8701171875,-841.4019775390627) " d="m-730.50489,1100.857c-0.23297,-0.099 -0.53369,0.014 -0.64454,0.2414l-0.5156,0.8931c-4.55835,-2.3318 -10.15851,-0.8384 -12.93458,3.4658l-0.89309,-0.5156c-0.0308,-0.029 -0.0674,-0.051 -0.10825,-0.062c-0.24324,-0.1024 -0.5576,0.025 -0.66016,0.2684c-0.10258,0.243 0.0253,0.5575 0.26841,0.6601l0.89309,0.5156c-2.33948,4.5562 -0.83272,10.1528 3.46583,12.9345l-0.51565,0.8932c-0.13556,0.2268 -0.0493,0.557 0.17946,0.6891c0.22879,0.1321 0.5577,0.042 0.68656,-0.1891l0.51565,-0.8932c4.56095,2.342 10.18287,0.8587 12.9616,-3.4501l0.86602,0.5c0.22877,0.1321 0.55708,0.049 0.68918,-0.1795c0.1321,-0.2288 0.0414,-0.5576 -0.18918,-0.6865l-0.86602,-0.5c2.34217,-4.5609 0.8158,-10.1713 -3.49285,-12.9502l0.5156,-0.8931c0.15073,-0.227 0.0689,-0.5743 -0.16736,-0.7101c-0.018,-0.01 -0.0361,-0.021 -0.0541,-0.031l-0.00002,-0.0008zm-1.66014,2.0005l-0.51565,0.8931c-3.58923,-1.7839 -7.94336,-0.6173 -10.15982,2.7223l-0.89308,-0.5156c2.50514,-3.8294 7.48439,-5.1636 11.56855,-3.0998zm0.86602,0.5c3.83997,2.502 5.16559,7.4794 3.09976,11.5686l-0.86603,-0.5c1.78209,-3.5904 0.59199,-7.958 -2.74938,-10.1755l0.51565,-0.8931zm-4.57355,3.4216c0.64456,0.3722 0.96059,0.9753 1.15196,1.5673c0.60731,-0.1257 1.26967,-0.1692 1.90619,0.1983c0.66437,0.3836 1.17913,0.9378 1.39971,1.6382c0.22054,0.7004 0.12468,1.534 -0.32032,2.3048c-0.50835,0.8805 -1.51749,1.2452 -2.63861,1.5077c-1.12111,0.2625 -2.42701,0.408 -3.63466,0.6079c-0.22244,0.034 -0.45942,-0.1029 -0.54126,-0.3125c-0.43124,-1.1471 -0.93416,-2.3334 -1.2638,-3.436c-0.32964,-1.1027 -0.5182,-2.165 -0.0136,-3.039c0.44105,-0.7639 1.10371,-1.2415 1.82027,-1.4028c0.71656,-0.1613 1.46769,-0.019 2.13412,0.3661zm-8.36102,0.044l0.89308,0.5157c-1.78494,3.591 -0.63176,7.9686 2.70672,10.1868l-0.5,0.866c-3.83357,-2.5083 -5.17433,-7.4817 -3.0998,-11.5685zm14.6683,8.4688l0.86603,0.5c-2.50515,3.8442 -7.4768,5.1764 -11.56851,3.0997l0.5,-0.866c3.59212,1.7831 7.98317,0.6065 10.20248,-2.7337z" fill="#dd0000"/>
   </svg>
  </g>
 </g>
</svg>